<?xml version="1.0" encoding="UTF-8" standalone="no"?>
<svg
   xmlns:dc="http://purl.org/dc/elements/1.1/"
   xmlns:cc="http://creativecommons.org/ns#"
   xmlns:rdf="http://www.w3.org/1999/02/22-rdf-syntax-ns#"
   xmlns:svg="http://www.w3.org/2000/svg"
   xmlns="http://www.w3.org/2000/svg"
   viewBox="0 0 107.0875 16.3125"
   height="16.3125"
   width="107.0875"
   xml:space="preserve"
   version="1.1"
   id="svg2"><metadata
     id="metadata8"><rdf:RDF><cc:Work
         rdf:about=""><dc:format>image/svg+xml</dc:format><dc:type
           rdf:resource="http://purl.org/dc/dcmitype/StillImage" /></cc:Work></rdf:RDF></metadata><defs
     id="defs6" /><g
     transform="matrix(1.25,0,0,-1.25,0,16.3125)"
     id="g10"><g
       transform="scale(0.1,0.1)"
       id="g12"><path
         id="path14"
         style="fill:#abaaa9;fill-opacity:1;fill-rule:nonzero;stroke:none"
         d="M 368.043,9.55078 330.531,114.004 c -0.488,1.445 -1.199,3.348 -1.199,5.019 0,4.532 3.828,8.829 9.305,8.829 4.785,0 7.902,-3.102 9.336,-7.633 l 31.074,-90.0042 31.301,90.2542 c 1.425,4.281 4.304,7.383 9.062,7.383 l 0.965,0 c 5.031,0 8.137,-3.102 9.563,-7.383 l 31.054,-90.2542 31.571,90.4732 c 1.203,3.832 3.808,7.164 8.839,7.164 5.254,0 9.082,-4.043 9.082,-8.594 0,-1.672 -0.722,-3.567 -1.191,-5.02 L 471.539,9.55078 C 469.605,4.08203 465.797,1.21094 461.488,1.21094 l -0.711,0 c -4.785,0 -8.379,2.87109 -10.058,8.33984 L 419.918,98.3047 388.832,9.55078 C 387.164,4.08203 383.57,1.21094 378.805,1.21094 l -0.5,0 c -4.532,0 -8.348,2.87109 -10.262,8.33984" /><path
         id="path16"
         style="fill:#abaaa9;fill-opacity:1;fill-rule:nonzero;stroke:none"
         d="m 641.48,118.746 c 0,5.039 4.063,9.344 9.083,9.344 5.281,0 9.343,-4.067 9.343,-9.344 l 0,-21.1991 c 9.094,20.5941 29.25,30.3051 42.61,30.3051 5.527,0 9.121,-4.067 9.121,-9.329 0,-5.031 -3.352,-8.605 -8.164,-9.335 -23.946,-2.872 -43.567,-20.8286 -43.567,-56.5122 l 0,-41.961 c 0,-5.03121 -3.828,-9.32808 -9.09,-9.32808 -5.273,0 -9.336,4.08203 -9.336,9.32808 l 0,108.0312" /><path
         id="path18"
         style="fill:#abaaa9;fill-opacity:1;fill-rule:nonzero;stroke:none"
         d="m 806.656,71.0703 c -1.875,22.2774 -14.562,41.6917 -38.711,41.6917 -21.113,0 -37.07,-17.7542 -39.375,-41.6917 l 78.086,0 z M 770.766,0.214844 c -33.309,0 -60.516,25.839856 -60.516,63.738256 l 0,0.4961 c 0,35.2813 24.629,63.7228 58.172,63.7228 35.871,0 56.301,-29.5978 56.301,-62.0743 0,-4.9844 -4.024,-8.543 -8.457,-8.543 l -87.696,0 c 2.559,-26.5195 21.075,-41.4531 42.676,-41.4531 15.008,0 26.016,5.9297 34.942,14.2187 1.394,1.1719 3.046,2.1211 5.164,2.1211 4.445,0 7.968,-3.5547 7.968,-7.832 0,-2.1211 -0.925,-4.2578 -2.82,-5.8985 C 805.016,7.57813 791.402,0.214844 770.766,0.214844" /><path
         id="path20"
         style="fill:#abaaa9;fill-opacity:1;fill-rule:nonzero;stroke:none"
         d="m 601.754,48.125 0,11.9336 c -9.082,2.625 -21.27,5.2695 -36.289,5.2695 -23.125,0 -36.035,-10.0468 -36.035,-25.5429 l 0,-0.4805 c 0,-15.5039 14.316,-24.5781 31.035,-24.5781 22.656,0 41.289,13.8476 41.289,33.3984 m -90.938,-9.5508 0,0.4883 c 0,26.0117 21.485,39.8633 52.735,39.8633 15.762,0 26.972,-2.1485 37.976,-5.2656 l 0,4.3125 c 0,22.1833 -13.64,33.6523 -36.765,33.6523 -12.422,0 -19.649,-1.582 -28.731,-5.625 -1.183,-0.484 -2.383,-0.727 -3.32,-0.727 -4.297,0 -8.125,3.59 -8.125,7.879 0,3.809 1.66,6.164 5.019,7.653 12.149,5.273 21.317,7.027 37.059,7.027 17.414,0 30.781,-4.516 39.836,-13.594 8.359,-8.355 12.664,-20.2888 12.664,-36.0388 l 0,-68.1015 c 0,-5.23442 -3.816,-9.06254 -8.855,-9.06254 -5.227,0 -8.782,3.82812 -8.782,8.59375 l 0,11.77739 C 592.926,10.1758 578.59,0.15625 556.91,0.15625 c -22.93,0 -46.094,13.12505 -46.094,38.41795" /><path
         id="path22"
         style="fill:#abaaa9;fill-opacity:1;fill-rule:nonzero;stroke:none"
         d="m 33.6953,120.105 c -4.043,8.864 -14.0312,12.879 -23.3594,8.727 C 1,124.684 -2.4375,114.332 1.78125,105.457 L 40.9414,20.3438 C 47.1055,6.99219 53.5977,0 65.7773,0 78.793,0 84.4688,7.61719 90.6211,20.3438 c 0,0 34.1599,74.3789 34.4999,75.1484 0.352,0.793 1.445,3.1953 4.922,3.1758 2.941,-0.0313 5.41,-2.3711 5.41,-5.5078 l 0,-72.75 C 135.453,9.19922 141.676,0 153.637,0 c 11.953,0 18.418,9.19922 18.418,20.4102 l 0,59.5156 c 0,11.4805 8.222,18.9258 19.433,18.9258 11.211,0 18.672,-7.7032 18.672,-18.9258 l 0,-59.5156 C 210.16,9.19922 216.402,0 228.344,0 c 11.953,0 18.449,9.19922 18.449,20.4102 l 0,59.5156 c 0,11.4805 8.191,18.9258 19.414,18.9258 11.191,0 18.68,-7.7032 18.68,-18.9258 l 0,-59.5156 C 284.887,9.19922 291.117,0 303.07,0 315.016,0 321.5,9.19922 321.5,20.4102 l 0,67.7382 c 0,24.8986 -20.012,42.3356 -44.102,42.3356 -24.062,0 -39.132,-16.648 -39.132,-16.648 -8.008,10.387 -19.051,16.633 -37.735,16.633 -19.715,0 -36.972,-16.633 -36.972,-16.633 -8.016,10.387 -21.661,16.633 -32.957,16.633 -17.473,0 -31.3481,-7.688 -39.8168,-27.043 L 65.7773,44.4727 33.6953,120.105" /><path
         id="path24"
         style="fill:#abaaa9;fill-opacity:1;fill-rule:nonzero;stroke:none"
         d="m 853.805,112.832 0,0.043 c 0,6.848 -5.293,12.465 -12.344,12.465 -6.992,0 -12.363,-5.711 -12.363,-12.508 l 0,-0.078 c 0,-6.836 5.312,-12.453 12.363,-12.453 6.973,0 12.344,5.711 12.344,12.531 m -27.598,-0.102 0,0.102 c 0,8.328 6.758,15.34 15.254,15.34 8.613,0 15.273,-6.942 15.273,-15.274 l 0,-0.066 c 0,-8.359 -6.738,-15.3711 -15.273,-15.3711 -8.613,0 -15.254,6.9181 -15.254,15.2691" /><path
         id="path26"
         style="fill:#abaaa9;fill-opacity:1;fill-rule:nonzero;stroke:none"
         d="m 842.184,113.32 c 1.582,0 2.461,0.828 2.461,2.09 l 0,0.047 c 0,1.383 -0.938,2.117 -2.52,2.117 l -3.242,0 0,-4.254 3.301,0 z m -6.563,5.551 c 0,0.91 0.723,1.633 1.641,1.633 l 5.097,0 c 1.914,0 3.399,-0.543 4.317,-1.516 0.84,-0.816 1.289,-1.992 1.289,-3.363 l 0,-0.051 c 0,-2.328 -1.172,-3.75 -2.949,-4.496 l 2.246,-2.75 c 0.312,-0.398 0.527,-0.742 0.527,-1.238 0,-0.902 -0.762,-1.5 -1.543,-1.5 -0.723,0 -1.211,0.367 -1.601,0.836 l -3.165,4.008 -2.597,0 0,-3.223 c 0,-0.902 -0.703,-1.621 -1.621,-1.621 -0.918,0 -1.641,0.719 -1.641,1.621 l 0,11.66" /></g></g></svg>
